<svg xmlns="http://www.w3.org/2000/svg" viewBox="0 0 499.59 112.69"><defs><style>.cls-1{fill:#ecf0f1;}</style></defs><g id="Content"><path class="cls-1" d="M0,1.66H19.18V50.6l.31.16L62.54,1.66H85.65L40.48,52.42,89.58,111H65.41L19.49,55.44l-.31.15V111h0A19.19,19.19,0,0,1,0,91.84Z"/><path class="cls-1" d="M117.38,1.66h152.1V18.73H136.57V45.92H262.13V62.24H136.57V94H271V111H117.38Z"/><path class="cls-1" d="M340.84,61.63l-42.3-60H320.9l15.86,23.11c4.83,7.1,9.51,14.05,13.74,20.55h.31c4.23-6.5,9.06-13.75,13.89-20.85L380.26,1.66h21.6L360,61.48V111H340.84Z"/><path class="cls-1" d="M427.68,84.29c11,7.86,24.93,11.33,34,11.33,10.88,0,18.73-4.68,18.73-14.8,0-12.09-11.48-13.75-25.68-18-15.25-4.68-29.6-11.63-29.6-31.12C425.12,11.93,439.92,0,462,0c10.58,0,23.27,2.57,32.48,8V27.34c-10.87-7.1-23.71-10.27-32.63-10.27-10.27,0-17.52,4.08-17.52,13.29,0,11.63,11.48,13.14,24.62,17.22,16.17,5,30.67,12.09,30.67,32.18,0,20.54-15.41,32.93-38.07,32.93-10.72,0-23.87-2.87-33.84-8.31Z"/></g></svg>